<?xml version="1.0" encoding="UTF-8"?>
<svg id="Capa_2" data-name="Capa 2" xmlns="http://www.w3.org/2000/svg" viewBox="0 0 118.11 143.74">
  <defs>
    <style>
      .cls-1 {
        fill: #fff;
      }
    </style>
  </defs>
  <g id="Capa_2-2" data-name="Capa 2">
    <g>
      <polygon class="cls-1" points="110.65 23.97 69.15 47.93 69.14 47.93 69.14 47.92 27.64 23.97 69.14 0 110.65 23.97"/>
      <path class="cls-1" d="m69.15,63.88l-.07-.04L0,23.96v79.85l64.62,37.32,4.53,2.61v-20.6s-13.97.25-22.91-9.27h22.91v-50Zm-34.58,36.34c-7.9,0-14.38-7.38-14.38-16.36s6.35-16.38,14.38-16.38,14.53,7.38,14.38,16.38c.02,8.97-6.33,16.36-14.38,16.36Z"/>
      <path class="cls-1" d="m89.35,83.86c-.02,8.97,6.33,16.36,14.38,16.36s14.38-7.38,14.38-16.36-6.35-16.38-14.38-16.38-14.53,7.38-14.38,16.38Z"/>
    </g>
  </g>
</svg>